<svg xmlns="http://www.w3.org/2000/svg" version="1.1" xmlns:xlink="http://www.w3.org/1999/xlink" xmlns:svgjs="http://svgjs.com/svgjs" width="1440" height="560" preserveAspectRatio="none" viewBox="0 0 1440 560"><g mask="url(&quot;#SvgjsMask1047&quot;)" fill="none"><rect width="1440" height="560" x="0" y="0" fill="rgba(195, 139, 191, 1)"></rect><path d="M852.43293182038 436.36161731650026L976.7268114392984 416.67540075729255 957.0405948800907 292.38152113837407 832.7467152611722 312.0677376975818z" fill="rgba(128, 0, 128, 1)" class="triangle-float2"></path><path d="M362.00883693280934 488.6778046204472L489.92895432022357 518.3389274761655 458.288819120974 407.99666297722325z" fill="rgba(128, 0, 128, 1)" class="triangle-float1"></path><path d="M213.16062689110373 232.70129418737525L310.4711595083245 219.0251907080168 296.7950560289661 121.71465809079602 199.48452341174527 135.39076157015447z" fill="rgba(128, 0, 128, 1)" class="triangle-float1"></path><path d="M463.5608982388137 160.12894165026302L308.67253105894275 195.88773880747186 499.31969539602255 315.01730883013397z" fill="rgba(128, 0, 128, 1)" class="triangle-float3"></path><path d="M912.542973292886 272.3086091268963L1015.582330246316 399.7998591428084 1069.2617659857929 266.9385934452247z" fill="rgba(128, 0, 128, 1)" class="triangle-float3"></path><path d="M48.749,94.974C66.037,95.433,83.635,88.137,91.835,72.91C99.711,58.284,94.641,40.683,85.432,26.857C77.284,14.624,63.434,8.851,48.749,8.228C32.629,7.544,14.833,9.836,6.244,23.495C-2.758,37.812,0.809,56.187,9.453,70.723C17.885,84.903,32.257,94.536,48.749,94.974" fill="rgba(128, 0, 128, 1)" class="triangle-float3"></path><path d="M315.08 423.59 a132.29 132.29 0 1 0 264.58 0 a132.29 132.29 0 1 0 -264.58 0z" fill="rgba(128, 0, 128, 1)" class="triangle-float2"></path><path d="M1038.788,520.065C1072.267,519.298,1093.376,487.727,1109.239,458.234C1124.023,430.747,1132.599,399.364,1118.752,371.393C1103.326,340.232,1073.504,317.856,1038.788,315.918C1000.53,313.782,959.479,327.562,941.706,361.509C924.766,393.865,943.448,430.447,962.519,461.594C980.448,490.875,1004.463,520.851,1038.788,520.065" fill="rgba(128, 0, 128, 1)" class="triangle-float1"></path><path d="M1346.4094680827257 27.400372922125214L1199.872360969188 24.842558203065245 1197.3145462501282 171.37966531660282 1343.8516533636657 173.93748003566282z" fill="rgba(128, 0, 128, 1)" class="triangle-float2"></path><path d="M341.07 140.79 a114.32 114.32 0 1 0 228.64 0 a114.32 114.32 0 1 0 -228.64 0z" fill="rgba(128, 0, 128, 1)" class="triangle-float1"></path><path d="M1212.06 537.47 a107.56 107.56 0 1 0 215.12 0 a107.56 107.56 0 1 0 -215.12 0z" fill="rgba(128, 0, 128, 1)" class="triangle-float3"></path><path d="M23.05519201962737 215.42350907990905L-76.85014377170911 285.3779783083752-6.895674543243004 385.2833140997117 93.00966124809348 315.32884487124556z" fill="rgba(128, 0, 128, 1)" class="triangle-float2"></path><path d="M1373.667,91.638C1402.712,92.215,1424.314,67.3,1437.697,41.515C1449.915,17.976,1451.184,-9.585,1438.211,-32.716C1424.947,-56.365,1400.767,-71.743,1373.667,-72.648C1344.875,-73.61,1314.789,-62.693,1301.198,-37.292C1288.153,-12.912,1300.351,14.951,1313.9,39.055C1327.836,63.848,1345.232,91.073,1373.667,91.638" fill="rgba(128, 0, 128, 1)" class="triangle-float2"></path></g><defs><mask id="SvgjsMask1047"><rect width="1440" height="560" fill="#ffffff"></rect></mask><style>
            @keyframes float1 {
                0%{transform: translate(0, 0)}
                50%{transform: translate(-10px, 0)}
                100%{transform: translate(0, 0)}
            }

            .triangle-float1 {
                animation: float1 5s infinite;
            }

            @keyframes float2 {
                0%{transform: translate(0, 0)}
                50%{transform: translate(-5px, -5px)}
                100%{transform: translate(0, 0)}
            }

            .triangle-float2 {
                animation: float2 4s infinite;
            }

            @keyframes float3 {
                0%{transform: translate(0, 0)}
                50%{transform: translate(0, -10px)}
                100%{transform: translate(0, 0)}
            }

            .triangle-float3 {
                animation: float3 6s infinite;
            }
        </style></defs></svg>